<?xml version="1.0" encoding="utf-8"?>
<!-- Generator: Adobe Illustrator 22.0.1, SVG Export Plug-In . SVG Version: 6.00 Build 0)  -->
<svg version="1.1" id="Layer_1" xmlns="http://www.w3.org/2000/svg" xmlns:xlink="http://www.w3.org/1999/xlink" x="0px" y="0px"
	 width="85px" height="85px" viewBox="0 0 85 85" style="enable-background:new 0 0 85 85;" xml:space="preserve">
<style type="text/css">
	.st0{fill:#FFFFFF;}
</style>
<path class="st0" d="M73.3,4.5c-2.8-0.9-5.6,0.2-7.2,2.5l-20,29.8c-1.7,2.6-5.6,2.6-7.3,0L18.7,7c-1.5-2.3-4.4-3.4-7.1-2.5
	c-2.6,0.7-4.5,3.3-4.5,6v37.8c0,3.6,2.9,6.5,6.4,6.5s6.4-2.9,6.4-6.5v-7.5c0-2.8,3.6-3.9,5.2-1.6l12.1,18c1.2,1.8,3.2,2.9,5.4,2.9
	c2.1,0,4.1-1.1,5.3-2.9l12.1-18c1.6-2.3,5.2-1.2,5.2,1.6V75c0,3.6,2.9,6.5,6.4,6.5S78,78.6,78,75V10.5C77.8,7.8,75.9,5.2,73.3,4.5"
	/>
<path class="st0" d="M13.5,68.7c-3.5,0-6.4,2.9-6.4,6.4s2.9,6.4,6.4,6.4s6.4-2.9,6.4-6.4C19.8,71.6,17,68.7,13.5,68.7"/>
</svg>
